<svg width="24" height="25" viewBox="0 0 24 25" fill="none" xmlns="http://www.w3.org/2000/svg">
<g clip-path="url(#clip0_40_22)">
<path d="M3 6.00351V22.0035H21V24.0035H3C2.46957 24.0035 1.96086 23.7928 1.58579 23.4177C1.21071 23.0427 1 22.5339 1 22.0035V6.00351H3ZM16 9.00351H21.5L16 3.50351V9.00351ZM7 2.00351H17L23 8.00351V18.0035C23 18.5339 22.7893 19.0427 22.4142 19.4177C22.0391 19.7928 21.5304 20.0035 21 20.0035H7C5.89 20.0035 5 19.1035 5 18.0035V4.00351C5 3.47308 5.21071 2.96437 5.58579 2.5893C5.96086 2.21422 6.46957 2.00351 7 2.00351ZM7 4.00351V18.0035H21V11.0035H14V4.00351H7Z" fill="white"/>
</g>
<defs>
<clipPath id="clip0_40_22">
<rect width="24" height="24" fill="white" transform="translate(0 0.00350952)"/>
</clipPath>
</defs>
</svg>
