<svg width="24" height="25" viewBox="0 0 24 25" fill="none" xmlns="http://www.w3.org/2000/svg">
<path d="M14.3 21.7035C13.6 21.9035 12.8 22.0035 12 22.0035C6.5 22.0035 2 17.5035 2 12.0035C2 6.50351 6.5 2.00351 12 2.00351C13.3 2.00351 14.6 2.30351 15.8 2.70351L14.2 4.30351C13.5 4.10351 12.8 4.00351 12 4.00351C7.6 4.00351 4 7.60351 4 12.0035C4 16.4035 7.6 20.0035 12 20.0035C12.4 20.0035 12.9 20.0035 13.3 19.9035C13.5 20.6035 13.9 21.2035 14.3 21.7035ZM7.9 10.1035L6.5 11.5035L11 16.0035L21 6.00351L19.6 4.60351L11 13.2035L7.9 10.1035ZM18 14.0035V17.0035H15V19.0035H18V22.0035H20V19.0035H23V17.0035H20V14.0035H18Z" fill="white"/>
</svg>
